# xmcd
#
# Track frame offsets:
#	150
#	12419
#	23307
#	36375
#	51408
#	65719
#
# Disc length: 1071 seconds
#
# Revision: 1
# Processed by: cddbd v1.4PL0 Copyright (c) Steve Scherf et al.
# Submitted via: audiograbber 1.80.04
#
DISCID=4b042d06
DTITLE=Speedbuggy USA - Round Up
DYEAR=2002
DGENRE=Punk Rock
TTITLE0=Club 190
TTITLE1=I'll Do All Right
TTITLE2=Pieces Of Your Heart
TTITLE3=Drive On
TTITLE4=Sad and Lonely
TTITLE5=Swingin' Doors
EXTD=Drive On written by Johnny Cash, Swingin' Doors written by Merle Haggard
EXTT0=
EXTT1=
EXTT2=
EXTT3=
EXTT4=
EXTT5=
PLAYORDER=
